<mxfile host="app.diagrams.net" modified="2023-10-28T00:09:52.190Z" agent="Mozilla/5.0 (Macintosh; Intel Mac OS X 10_15_7) AppleWebKit/537.36 (KHTML, like Gecko) Chrome/116.0.0.0 Safari/537.36" etag="iZ_7UyMQDLye_fRiKAgz" version="22.0.8" type="device">
  <diagram name="Page-1" id="hpfsDM6GJcTRqzWGFll4">
    <mxGraphModel dx="815" dy="743" grid="1" gridSize="10" guides="1" tooltips="1" connect="1" arrows="1" fold="1" page="1" pageScale="1" pageWidth="850" pageHeight="1100" math="0" shadow="0">
      <root>
        <mxCell id="0" />
        <mxCell id="1" parent="0" />
        <mxCell id="124qABG8EBhvvCTnsMnD-1" value="Parking Ticket Table" style="shape=table;startSize=50;container=1;collapsible=0;childLayout=tableLayout;strokeColor=default;fontSize=16;" vertex="1" parent="1">
          <mxGeometry x="45" width="760" height="300" as="geometry" />
        </mxCell>
        <mxCell id="124qABG8EBhvvCTnsMnD-2" value="" style="shape=tableRow;horizontal=0;startSize=0;swimlaneHead=0;swimlaneBody=0;strokeColor=inherit;top=0;left=0;bottom=0;right=0;collapsible=0;dropTarget=0;fillColor=none;points=[[0,0.5],[1,0.5]];portConstraint=eastwest;fontSize=16;" vertex="1" parent="124qABG8EBhvvCTnsMnD-1">
          <mxGeometry y="50" width="760" height="42" as="geometry" />
        </mxCell>
        <mxCell id="124qABG8EBhvvCTnsMnD-3" value="&lt;font style=&quot;font-size: 14px;&quot;&gt;&lt;b&gt;Student_ID&lt;/b&gt;&lt;/font&gt;" style="shape=partialRectangle;html=1;whiteSpace=wrap;connectable=0;strokeColor=inherit;overflow=hidden;fillColor=none;top=0;left=0;bottom=0;right=0;pointerEvents=1;fontSize=16;" vertex="1" parent="124qABG8EBhvvCTnsMnD-2">
          <mxGeometry width="76" height="42" as="geometry">
            <mxRectangle width="76" height="42" as="alternateBounds" />
          </mxGeometry>
        </mxCell>
        <mxCell id="124qABG8EBhvvCTnsMnD-4" value="&lt;b&gt;Last Name&lt;/b&gt;" style="shape=partialRectangle;html=1;whiteSpace=wrap;connectable=0;strokeColor=inherit;overflow=hidden;fillColor=none;top=0;left=0;bottom=0;right=0;pointerEvents=1;fontSize=16;" vertex="1" parent="124qABG8EBhvvCTnsMnD-2">
          <mxGeometry x="76" width="76" height="42" as="geometry">
            <mxRectangle width="76" height="42" as="alternateBounds" />
          </mxGeometry>
        </mxCell>
        <mxCell id="124qABG8EBhvvCTnsMnD-5" value="&lt;b&gt;First Name&lt;/b&gt;" style="shape=partialRectangle;html=1;whiteSpace=wrap;connectable=0;strokeColor=inherit;overflow=hidden;fillColor=none;top=0;left=0;bottom=0;right=0;pointerEvents=1;fontSize=16;" vertex="1" parent="124qABG8EBhvvCTnsMnD-2">
          <mxGeometry x="152" width="76" height="42" as="geometry">
            <mxRectangle width="76" height="42" as="alternateBounds" />
          </mxGeometry>
        </mxCell>
        <mxCell id="124qABG8EBhvvCTnsMnD-14" value="&lt;b&gt;Phone No.&lt;/b&gt;" style="shape=partialRectangle;html=1;whiteSpace=wrap;connectable=0;strokeColor=inherit;overflow=hidden;fillColor=none;top=0;left=0;bottom=0;right=0;pointerEvents=1;fontSize=16;" vertex="1" parent="124qABG8EBhvvCTnsMnD-2">
          <mxGeometry x="228" width="76" height="42" as="geometry">
            <mxRectangle width="76" height="42" as="alternateBounds" />
          </mxGeometry>
        </mxCell>
        <mxCell id="124qABG8EBhvvCTnsMnD-17" value="&lt;b&gt;St Lic&lt;/b&gt;" style="shape=partialRectangle;html=1;whiteSpace=wrap;connectable=0;strokeColor=inherit;overflow=hidden;fillColor=none;top=0;left=0;bottom=0;right=0;pointerEvents=1;fontSize=16;" vertex="1" parent="124qABG8EBhvvCTnsMnD-2">
          <mxGeometry x="304" width="76" height="42" as="geometry">
            <mxRectangle width="76" height="42" as="alternateBounds" />
          </mxGeometry>
        </mxCell>
        <mxCell id="124qABG8EBhvvCTnsMnD-20" value="&lt;b&gt;License No.&lt;/b&gt;" style="shape=partialRectangle;html=1;whiteSpace=wrap;connectable=0;strokeColor=inherit;overflow=hidden;fillColor=none;top=0;left=0;bottom=0;right=0;pointerEvents=1;fontSize=16;" vertex="1" parent="124qABG8EBhvvCTnsMnD-2">
          <mxGeometry x="380" width="76" height="42" as="geometry">
            <mxRectangle width="76" height="42" as="alternateBounds" />
          </mxGeometry>
        </mxCell>
        <mxCell id="124qABG8EBhvvCTnsMnD-23" value="&lt;b&gt;Ticket #&lt;/b&gt;" style="shape=partialRectangle;html=1;whiteSpace=wrap;connectable=0;strokeColor=inherit;overflow=hidden;fillColor=none;top=0;left=0;bottom=0;right=0;pointerEvents=1;fontSize=16;" vertex="1" parent="124qABG8EBhvvCTnsMnD-2">
          <mxGeometry x="456" width="76" height="42" as="geometry">
            <mxRectangle width="76" height="42" as="alternateBounds" />
          </mxGeometry>
        </mxCell>
        <mxCell id="124qABG8EBhvvCTnsMnD-26" value="&lt;b&gt;Date&lt;/b&gt;" style="shape=partialRectangle;html=1;whiteSpace=wrap;connectable=0;strokeColor=inherit;overflow=hidden;fillColor=none;top=0;left=0;bottom=0;right=0;pointerEvents=1;fontSize=16;" vertex="1" parent="124qABG8EBhvvCTnsMnD-2">
          <mxGeometry x="532" width="76" height="42" as="geometry">
            <mxRectangle width="76" height="42" as="alternateBounds" />
          </mxGeometry>
        </mxCell>
        <mxCell id="124qABG8EBhvvCTnsMnD-29" value="&lt;b&gt;Code&lt;/b&gt;" style="shape=partialRectangle;html=1;whiteSpace=wrap;connectable=0;strokeColor=inherit;overflow=hidden;fillColor=none;top=0;left=0;bottom=0;right=0;pointerEvents=1;fontSize=16;" vertex="1" parent="124qABG8EBhvvCTnsMnD-2">
          <mxGeometry x="608" width="76" height="42" as="geometry">
            <mxRectangle width="76" height="42" as="alternateBounds" />
          </mxGeometry>
        </mxCell>
        <mxCell id="124qABG8EBhvvCTnsMnD-32" value="&lt;b&gt;Fine&lt;/b&gt;" style="shape=partialRectangle;html=1;whiteSpace=wrap;connectable=0;strokeColor=inherit;overflow=hidden;fillColor=none;top=0;left=0;bottom=0;right=0;pointerEvents=1;fontSize=16;" vertex="1" parent="124qABG8EBhvvCTnsMnD-2">
          <mxGeometry x="684" width="76" height="42" as="geometry">
            <mxRectangle width="76" height="42" as="alternateBounds" />
          </mxGeometry>
        </mxCell>
        <mxCell id="124qABG8EBhvvCTnsMnD-6" value="" style="shape=tableRow;horizontal=0;startSize=0;swimlaneHead=0;swimlaneBody=0;strokeColor=inherit;top=0;left=0;bottom=0;right=0;collapsible=0;dropTarget=0;fillColor=none;points=[[0,0.5],[1,0.5]];portConstraint=eastwest;fontSize=16;" vertex="1" parent="124qABG8EBhvvCTnsMnD-1">
          <mxGeometry y="92" width="760" height="41" as="geometry" />
        </mxCell>
        <mxCell id="124qABG8EBhvvCTnsMnD-7" value="38249" style="shape=partialRectangle;html=1;whiteSpace=wrap;connectable=0;strokeColor=inherit;overflow=hidden;fillColor=none;top=0;left=0;bottom=0;right=0;pointerEvents=1;fontSize=16;" vertex="1" parent="124qABG8EBhvvCTnsMnD-6">
          <mxGeometry width="76" height="41" as="geometry">
            <mxRectangle width="76" height="41" as="alternateBounds" />
          </mxGeometry>
        </mxCell>
        <mxCell id="124qABG8EBhvvCTnsMnD-8" value="Brown" style="shape=partialRectangle;html=1;whiteSpace=wrap;connectable=0;strokeColor=inherit;overflow=hidden;fillColor=none;top=0;left=0;bottom=0;right=0;pointerEvents=1;fontSize=16;" vertex="1" parent="124qABG8EBhvvCTnsMnD-6">
          <mxGeometry x="76" width="76" height="41" as="geometry">
            <mxRectangle width="76" height="41" as="alternateBounds" />
          </mxGeometry>
        </mxCell>
        <mxCell id="124qABG8EBhvvCTnsMnD-9" value="Thomas" style="shape=partialRectangle;html=1;whiteSpace=wrap;connectable=0;strokeColor=inherit;overflow=hidden;fillColor=none;top=0;left=0;bottom=0;right=0;pointerEvents=1;fontSize=16;" vertex="1" parent="124qABG8EBhvvCTnsMnD-6">
          <mxGeometry x="152" width="76" height="41" as="geometry">
            <mxRectangle width="76" height="41" as="alternateBounds" />
          </mxGeometry>
        </mxCell>
        <mxCell id="124qABG8EBhvvCTnsMnD-15" value="111-7804" style="shape=partialRectangle;html=1;whiteSpace=wrap;connectable=0;strokeColor=inherit;overflow=hidden;fillColor=none;top=0;left=0;bottom=0;right=0;pointerEvents=1;fontSize=16;" vertex="1" parent="124qABG8EBhvvCTnsMnD-6">
          <mxGeometry x="228" width="76" height="41" as="geometry">
            <mxRectangle width="76" height="41" as="alternateBounds" />
          </mxGeometry>
        </mxCell>
        <mxCell id="124qABG8EBhvvCTnsMnD-18" value="FL" style="shape=partialRectangle;html=1;whiteSpace=wrap;connectable=0;strokeColor=inherit;overflow=hidden;fillColor=none;top=0;left=0;bottom=0;right=0;pointerEvents=1;fontSize=16;" vertex="1" parent="124qABG8EBhvvCTnsMnD-6">
          <mxGeometry x="304" width="76" height="41" as="geometry">
            <mxRectangle width="76" height="41" as="alternateBounds" />
          </mxGeometry>
        </mxCell>
        <mxCell id="124qABG8EBhvvCTnsMnD-21" value="BRY123" style="shape=partialRectangle;html=1;whiteSpace=wrap;connectable=0;strokeColor=inherit;overflow=hidden;fillColor=none;top=0;left=0;bottom=0;right=0;pointerEvents=1;fontSize=16;" vertex="1" parent="124qABG8EBhvvCTnsMnD-6">
          <mxGeometry x="380" width="76" height="41" as="geometry">
            <mxRectangle width="76" height="41" as="alternateBounds" />
          </mxGeometry>
        </mxCell>
        <mxCell id="124qABG8EBhvvCTnsMnD-24" value="15634" style="shape=partialRectangle;html=1;whiteSpace=wrap;connectable=0;strokeColor=inherit;overflow=hidden;fillColor=none;top=0;left=0;bottom=0;right=0;pointerEvents=1;fontSize=16;" vertex="1" parent="124qABG8EBhvvCTnsMnD-6">
          <mxGeometry x="456" width="76" height="41" as="geometry">
            <mxRectangle width="76" height="41" as="alternateBounds" />
          </mxGeometry>
        </mxCell>
        <mxCell id="124qABG8EBhvvCTnsMnD-27" value="10/17/21" style="shape=partialRectangle;html=1;whiteSpace=wrap;connectable=0;strokeColor=inherit;overflow=hidden;fillColor=none;top=0;left=0;bottom=0;right=0;pointerEvents=1;fontSize=16;" vertex="1" parent="124qABG8EBhvvCTnsMnD-6">
          <mxGeometry x="532" width="76" height="41" as="geometry">
            <mxRectangle width="76" height="41" as="alternateBounds" />
          </mxGeometry>
        </mxCell>
        <mxCell id="124qABG8EBhvvCTnsMnD-30" value="2" style="shape=partialRectangle;html=1;whiteSpace=wrap;connectable=0;strokeColor=inherit;overflow=hidden;fillColor=none;top=0;left=0;bottom=0;right=0;pointerEvents=1;fontSize=16;" vertex="1" parent="124qABG8EBhvvCTnsMnD-6">
          <mxGeometry x="608" width="76" height="41" as="geometry">
            <mxRectangle width="76" height="41" as="alternateBounds" />
          </mxGeometry>
        </mxCell>
        <mxCell id="124qABG8EBhvvCTnsMnD-33" value="$25" style="shape=partialRectangle;html=1;whiteSpace=wrap;connectable=0;strokeColor=inherit;overflow=hidden;fillColor=none;top=0;left=0;bottom=0;right=0;pointerEvents=1;fontSize=16;" vertex="1" parent="124qABG8EBhvvCTnsMnD-6">
          <mxGeometry x="684" width="76" height="41" as="geometry">
            <mxRectangle width="76" height="41" as="alternateBounds" />
          </mxGeometry>
        </mxCell>
        <mxCell id="124qABG8EBhvvCTnsMnD-10" value="" style="shape=tableRow;horizontal=0;startSize=0;swimlaneHead=0;swimlaneBody=0;strokeColor=inherit;top=0;left=0;bottom=0;right=0;collapsible=0;dropTarget=0;fillColor=none;points=[[0,0.5],[1,0.5]];portConstraint=eastwest;fontSize=16;" vertex="1" parent="124qABG8EBhvvCTnsMnD-1">
          <mxGeometry y="133" width="760" height="42" as="geometry" />
        </mxCell>
        <mxCell id="124qABG8EBhvvCTnsMnD-11" value="38249" style="shape=partialRectangle;html=1;whiteSpace=wrap;connectable=0;strokeColor=inherit;overflow=hidden;fillColor=none;top=0;left=0;bottom=0;right=0;pointerEvents=1;fontSize=16;" vertex="1" parent="124qABG8EBhvvCTnsMnD-10">
          <mxGeometry width="76" height="42" as="geometry">
            <mxRectangle width="76" height="42" as="alternateBounds" />
          </mxGeometry>
        </mxCell>
        <mxCell id="124qABG8EBhvvCTnsMnD-12" value="Brown" style="shape=partialRectangle;html=1;whiteSpace=wrap;connectable=0;strokeColor=inherit;overflow=hidden;fillColor=none;top=0;left=0;bottom=0;right=0;pointerEvents=1;fontSize=16;" vertex="1" parent="124qABG8EBhvvCTnsMnD-10">
          <mxGeometry x="76" width="76" height="42" as="geometry">
            <mxRectangle width="76" height="42" as="alternateBounds" />
          </mxGeometry>
        </mxCell>
        <mxCell id="124qABG8EBhvvCTnsMnD-13" value="Thomas" style="shape=partialRectangle;html=1;whiteSpace=wrap;connectable=0;strokeColor=inherit;overflow=hidden;fillColor=none;top=0;left=0;bottom=0;right=0;pointerEvents=1;fontSize=16;" vertex="1" parent="124qABG8EBhvvCTnsMnD-10">
          <mxGeometry x="152" width="76" height="42" as="geometry">
            <mxRectangle width="76" height="42" as="alternateBounds" />
          </mxGeometry>
        </mxCell>
        <mxCell id="124qABG8EBhvvCTnsMnD-16" value="111-7804" style="shape=partialRectangle;html=1;whiteSpace=wrap;connectable=0;strokeColor=inherit;overflow=hidden;fillColor=none;top=0;left=0;bottom=0;right=0;pointerEvents=1;fontSize=16;" vertex="1" parent="124qABG8EBhvvCTnsMnD-10">
          <mxGeometry x="228" width="76" height="42" as="geometry">
            <mxRectangle width="76" height="42" as="alternateBounds" />
          </mxGeometry>
        </mxCell>
        <mxCell id="124qABG8EBhvvCTnsMnD-19" value="FL" style="shape=partialRectangle;html=1;whiteSpace=wrap;connectable=0;strokeColor=inherit;overflow=hidden;fillColor=none;top=0;left=0;bottom=0;right=0;pointerEvents=1;fontSize=16;" vertex="1" parent="124qABG8EBhvvCTnsMnD-10">
          <mxGeometry x="304" width="76" height="42" as="geometry">
            <mxRectangle width="76" height="42" as="alternateBounds" />
          </mxGeometry>
        </mxCell>
        <mxCell id="124qABG8EBhvvCTnsMnD-22" value="BRY123" style="shape=partialRectangle;html=1;whiteSpace=wrap;connectable=0;strokeColor=inherit;overflow=hidden;fillColor=none;top=0;left=0;bottom=0;right=0;pointerEvents=1;fontSize=16;" vertex="1" parent="124qABG8EBhvvCTnsMnD-10">
          <mxGeometry x="380" width="76" height="42" as="geometry">
            <mxRectangle width="76" height="42" as="alternateBounds" />
          </mxGeometry>
        </mxCell>
        <mxCell id="124qABG8EBhvvCTnsMnD-25" value="16017" style="shape=partialRectangle;html=1;whiteSpace=wrap;connectable=0;strokeColor=inherit;overflow=hidden;fillColor=none;top=0;left=0;bottom=0;right=0;pointerEvents=1;fontSize=16;" vertex="1" parent="124qABG8EBhvvCTnsMnD-10">
          <mxGeometry x="456" width="76" height="42" as="geometry">
            <mxRectangle width="76" height="42" as="alternateBounds" />
          </mxGeometry>
        </mxCell>
        <mxCell id="124qABG8EBhvvCTnsMnD-28" value="11/13/21" style="shape=partialRectangle;html=1;whiteSpace=wrap;connectable=0;strokeColor=inherit;overflow=hidden;fillColor=none;top=0;left=0;bottom=0;right=0;pointerEvents=1;fontSize=16;" vertex="1" parent="124qABG8EBhvvCTnsMnD-10">
          <mxGeometry x="532" width="76" height="42" as="geometry">
            <mxRectangle width="76" height="42" as="alternateBounds" />
          </mxGeometry>
        </mxCell>
        <mxCell id="124qABG8EBhvvCTnsMnD-31" value="1" style="shape=partialRectangle;html=1;whiteSpace=wrap;connectable=0;strokeColor=inherit;overflow=hidden;fillColor=none;top=0;left=0;bottom=0;right=0;pointerEvents=1;fontSize=16;" vertex="1" parent="124qABG8EBhvvCTnsMnD-10">
          <mxGeometry x="608" width="76" height="42" as="geometry">
            <mxRectangle width="76" height="42" as="alternateBounds" />
          </mxGeometry>
        </mxCell>
        <mxCell id="124qABG8EBhvvCTnsMnD-34" value="$15" style="shape=partialRectangle;html=1;whiteSpace=wrap;connectable=0;strokeColor=inherit;overflow=hidden;fillColor=none;top=0;left=0;bottom=0;right=0;pointerEvents=1;fontSize=16;" vertex="1" parent="124qABG8EBhvvCTnsMnD-10">
          <mxGeometry x="684" width="76" height="42" as="geometry">
            <mxRectangle width="76" height="42" as="alternateBounds" />
          </mxGeometry>
        </mxCell>
        <mxCell id="124qABG8EBhvvCTnsMnD-35" style="shape=tableRow;horizontal=0;startSize=0;swimlaneHead=0;swimlaneBody=0;strokeColor=inherit;top=0;left=0;bottom=0;right=0;collapsible=0;dropTarget=0;fillColor=none;points=[[0,0.5],[1,0.5]];portConstraint=eastwest;fontSize=16;" vertex="1" parent="124qABG8EBhvvCTnsMnD-1">
          <mxGeometry y="175" width="760" height="42" as="geometry" />
        </mxCell>
        <mxCell id="124qABG8EBhvvCTnsMnD-36" value="82453" style="shape=partialRectangle;html=1;whiteSpace=wrap;connectable=0;strokeColor=inherit;overflow=hidden;fillColor=none;top=0;left=0;bottom=0;right=0;pointerEvents=1;fontSize=16;" vertex="1" parent="124qABG8EBhvvCTnsMnD-35">
          <mxGeometry width="76" height="42" as="geometry">
            <mxRectangle width="76" height="42" as="alternateBounds" />
          </mxGeometry>
        </mxCell>
        <mxCell id="124qABG8EBhvvCTnsMnD-37" value="Green" style="shape=partialRectangle;html=1;whiteSpace=wrap;connectable=0;strokeColor=inherit;overflow=hidden;fillColor=none;top=0;left=0;bottom=0;right=0;pointerEvents=1;fontSize=16;" vertex="1" parent="124qABG8EBhvvCTnsMnD-35">
          <mxGeometry x="76" width="76" height="42" as="geometry">
            <mxRectangle width="76" height="42" as="alternateBounds" />
          </mxGeometry>
        </mxCell>
        <mxCell id="124qABG8EBhvvCTnsMnD-38" value="Sally" style="shape=partialRectangle;html=1;whiteSpace=wrap;connectable=0;strokeColor=inherit;overflow=hidden;fillColor=none;top=0;left=0;bottom=0;right=0;pointerEvents=1;fontSize=16;" vertex="1" parent="124qABG8EBhvvCTnsMnD-35">
          <mxGeometry x="152" width="76" height="42" as="geometry">
            <mxRectangle width="76" height="42" as="alternateBounds" />
          </mxGeometry>
        </mxCell>
        <mxCell id="124qABG8EBhvvCTnsMnD-39" value="391-1689" style="shape=partialRectangle;html=1;whiteSpace=wrap;connectable=0;strokeColor=inherit;overflow=hidden;fillColor=none;top=0;left=0;bottom=0;right=0;pointerEvents=1;fontSize=16;" vertex="1" parent="124qABG8EBhvvCTnsMnD-35">
          <mxGeometry x="228" width="76" height="42" as="geometry">
            <mxRectangle width="76" height="42" as="alternateBounds" />
          </mxGeometry>
        </mxCell>
        <mxCell id="124qABG8EBhvvCTnsMnD-40" value="AL" style="shape=partialRectangle;html=1;whiteSpace=wrap;connectable=0;strokeColor=inherit;overflow=hidden;fillColor=none;top=0;left=0;bottom=0;right=0;pointerEvents=1;fontSize=16;" vertex="1" parent="124qABG8EBhvvCTnsMnD-35">
          <mxGeometry x="304" width="76" height="42" as="geometry">
            <mxRectangle width="76" height="42" as="alternateBounds" />
          </mxGeometry>
        </mxCell>
        <mxCell id="124qABG8EBhvvCTnsMnD-41" value="TRE141" style="shape=partialRectangle;html=1;whiteSpace=wrap;connectable=0;strokeColor=inherit;overflow=hidden;fillColor=none;top=0;left=0;bottom=0;right=0;pointerEvents=1;fontSize=16;" vertex="1" parent="124qABG8EBhvvCTnsMnD-35">
          <mxGeometry x="380" width="76" height="42" as="geometry">
            <mxRectangle width="76" height="42" as="alternateBounds" />
          </mxGeometry>
        </mxCell>
        <mxCell id="124qABG8EBhvvCTnsMnD-42" value="14987" style="shape=partialRectangle;html=1;whiteSpace=wrap;connectable=0;strokeColor=inherit;overflow=hidden;fillColor=none;top=0;left=0;bottom=0;right=0;pointerEvents=1;fontSize=16;" vertex="1" parent="124qABG8EBhvvCTnsMnD-35">
          <mxGeometry x="456" width="76" height="42" as="geometry">
            <mxRectangle width="76" height="42" as="alternateBounds" />
          </mxGeometry>
        </mxCell>
        <mxCell id="124qABG8EBhvvCTnsMnD-43" value="10/05/21" style="shape=partialRectangle;html=1;whiteSpace=wrap;connectable=0;strokeColor=inherit;overflow=hidden;fillColor=none;top=0;left=0;bottom=0;right=0;pointerEvents=1;fontSize=16;" vertex="1" parent="124qABG8EBhvvCTnsMnD-35">
          <mxGeometry x="532" width="76" height="42" as="geometry">
            <mxRectangle width="76" height="42" as="alternateBounds" />
          </mxGeometry>
        </mxCell>
        <mxCell id="124qABG8EBhvvCTnsMnD-44" value="3" style="shape=partialRectangle;html=1;whiteSpace=wrap;connectable=0;strokeColor=inherit;overflow=hidden;fillColor=none;top=0;left=0;bottom=0;right=0;pointerEvents=1;fontSize=16;" vertex="1" parent="124qABG8EBhvvCTnsMnD-35">
          <mxGeometry x="608" width="76" height="42" as="geometry">
            <mxRectangle width="76" height="42" as="alternateBounds" />
          </mxGeometry>
        </mxCell>
        <mxCell id="124qABG8EBhvvCTnsMnD-45" value="$100" style="shape=partialRectangle;html=1;whiteSpace=wrap;connectable=0;strokeColor=inherit;overflow=hidden;fillColor=none;top=0;left=0;bottom=0;right=0;pointerEvents=1;fontSize=16;" vertex="1" parent="124qABG8EBhvvCTnsMnD-35">
          <mxGeometry x="684" width="76" height="42" as="geometry">
            <mxRectangle width="76" height="42" as="alternateBounds" />
          </mxGeometry>
        </mxCell>
        <mxCell id="124qABG8EBhvvCTnsMnD-46" style="shape=tableRow;horizontal=0;startSize=0;swimlaneHead=0;swimlaneBody=0;strokeColor=inherit;top=0;left=0;bottom=0;right=0;collapsible=0;dropTarget=0;fillColor=none;points=[[0,0.5],[1,0.5]];portConstraint=eastwest;fontSize=16;" vertex="1" parent="124qABG8EBhvvCTnsMnD-1">
          <mxGeometry y="217" width="760" height="41" as="geometry" />
        </mxCell>
        <mxCell id="124qABG8EBhvvCTnsMnD-47" value="82453" style="shape=partialRectangle;html=1;whiteSpace=wrap;connectable=0;strokeColor=inherit;overflow=hidden;fillColor=none;top=0;left=0;bottom=0;right=0;pointerEvents=1;fontSize=16;" vertex="1" parent="124qABG8EBhvvCTnsMnD-46">
          <mxGeometry width="76" height="41" as="geometry">
            <mxRectangle width="76" height="41" as="alternateBounds" />
          </mxGeometry>
        </mxCell>
        <mxCell id="124qABG8EBhvvCTnsMnD-48" value="Green" style="shape=partialRectangle;html=1;whiteSpace=wrap;connectable=0;strokeColor=inherit;overflow=hidden;fillColor=none;top=0;left=0;bottom=0;right=0;pointerEvents=1;fontSize=16;" vertex="1" parent="124qABG8EBhvvCTnsMnD-46">
          <mxGeometry x="76" width="76" height="41" as="geometry">
            <mxRectangle width="76" height="41" as="alternateBounds" />
          </mxGeometry>
        </mxCell>
        <mxCell id="124qABG8EBhvvCTnsMnD-49" value="Sally" style="shape=partialRectangle;html=1;whiteSpace=wrap;connectable=0;strokeColor=inherit;overflow=hidden;fillColor=none;top=0;left=0;bottom=0;right=0;pointerEvents=1;fontSize=16;" vertex="1" parent="124qABG8EBhvvCTnsMnD-46">
          <mxGeometry x="152" width="76" height="41" as="geometry">
            <mxRectangle width="76" height="41" as="alternateBounds" />
          </mxGeometry>
        </mxCell>
        <mxCell id="124qABG8EBhvvCTnsMnD-50" value="391-1689" style="shape=partialRectangle;html=1;whiteSpace=wrap;connectable=0;strokeColor=inherit;overflow=hidden;fillColor=none;top=0;left=0;bottom=0;right=0;pointerEvents=1;fontSize=16;" vertex="1" parent="124qABG8EBhvvCTnsMnD-46">
          <mxGeometry x="228" width="76" height="41" as="geometry">
            <mxRectangle width="76" height="41" as="alternateBounds" />
          </mxGeometry>
        </mxCell>
        <mxCell id="124qABG8EBhvvCTnsMnD-51" value="AL" style="shape=partialRectangle;html=1;whiteSpace=wrap;connectable=0;strokeColor=inherit;overflow=hidden;fillColor=none;top=0;left=0;bottom=0;right=0;pointerEvents=1;fontSize=16;" vertex="1" parent="124qABG8EBhvvCTnsMnD-46">
          <mxGeometry x="304" width="76" height="41" as="geometry">
            <mxRectangle width="76" height="41" as="alternateBounds" />
          </mxGeometry>
        </mxCell>
        <mxCell id="124qABG8EBhvvCTnsMnD-52" value="TRE141" style="shape=partialRectangle;html=1;whiteSpace=wrap;connectable=0;strokeColor=inherit;overflow=hidden;fillColor=none;top=0;left=0;bottom=0;right=0;pointerEvents=1;fontSize=16;" vertex="1" parent="124qABG8EBhvvCTnsMnD-46">
          <mxGeometry x="380" width="76" height="41" as="geometry">
            <mxRectangle width="76" height="41" as="alternateBounds" />
          </mxGeometry>
        </mxCell>
        <mxCell id="124qABG8EBhvvCTnsMnD-53" value="16293" style="shape=partialRectangle;html=1;whiteSpace=wrap;connectable=0;strokeColor=inherit;overflow=hidden;fillColor=none;top=0;left=0;bottom=0;right=0;pointerEvents=1;fontSize=16;" vertex="1" parent="124qABG8EBhvvCTnsMnD-46">
          <mxGeometry x="456" width="76" height="41" as="geometry">
            <mxRectangle width="76" height="41" as="alternateBounds" />
          </mxGeometry>
        </mxCell>
        <mxCell id="124qABG8EBhvvCTnsMnD-54" value="11/18/21" style="shape=partialRectangle;html=1;whiteSpace=wrap;connectable=0;strokeColor=inherit;overflow=hidden;fillColor=none;top=0;left=0;bottom=0;right=0;pointerEvents=1;fontSize=16;" vertex="1" parent="124qABG8EBhvvCTnsMnD-46">
          <mxGeometry x="532" width="76" height="41" as="geometry">
            <mxRectangle width="76" height="41" as="alternateBounds" />
          </mxGeometry>
        </mxCell>
        <mxCell id="124qABG8EBhvvCTnsMnD-55" value="1" style="shape=partialRectangle;html=1;whiteSpace=wrap;connectable=0;strokeColor=inherit;overflow=hidden;fillColor=none;top=0;left=0;bottom=0;right=0;pointerEvents=1;fontSize=16;" vertex="1" parent="124qABG8EBhvvCTnsMnD-46">
          <mxGeometry x="608" width="76" height="41" as="geometry">
            <mxRectangle width="76" height="41" as="alternateBounds" />
          </mxGeometry>
        </mxCell>
        <mxCell id="124qABG8EBhvvCTnsMnD-56" value="$15" style="shape=partialRectangle;html=1;whiteSpace=wrap;connectable=0;strokeColor=inherit;overflow=hidden;fillColor=none;top=0;left=0;bottom=0;right=0;pointerEvents=1;fontSize=16;" vertex="1" parent="124qABG8EBhvvCTnsMnD-46">
          <mxGeometry x="684" width="76" height="41" as="geometry">
            <mxRectangle width="76" height="41" as="alternateBounds" />
          </mxGeometry>
        </mxCell>
        <mxCell id="124qABG8EBhvvCTnsMnD-57" style="shape=tableRow;horizontal=0;startSize=0;swimlaneHead=0;swimlaneBody=0;strokeColor=inherit;top=0;left=0;bottom=0;right=0;collapsible=0;dropTarget=0;fillColor=none;points=[[0,0.5],[1,0.5]];portConstraint=eastwest;fontSize=16;" vertex="1" parent="124qABG8EBhvvCTnsMnD-1">
          <mxGeometry y="258" width="760" height="42" as="geometry" />
        </mxCell>
        <mxCell id="124qABG8EBhvvCTnsMnD-58" value="82453" style="shape=partialRectangle;html=1;whiteSpace=wrap;connectable=0;strokeColor=inherit;overflow=hidden;fillColor=none;top=0;left=0;bottom=0;right=0;pointerEvents=1;fontSize=16;" vertex="1" parent="124qABG8EBhvvCTnsMnD-57">
          <mxGeometry width="76" height="42" as="geometry">
            <mxRectangle width="76" height="42" as="alternateBounds" />
          </mxGeometry>
        </mxCell>
        <mxCell id="124qABG8EBhvvCTnsMnD-59" value="Green" style="shape=partialRectangle;html=1;whiteSpace=wrap;connectable=0;strokeColor=inherit;overflow=hidden;fillColor=none;top=0;left=0;bottom=0;right=0;pointerEvents=1;fontSize=16;" vertex="1" parent="124qABG8EBhvvCTnsMnD-57">
          <mxGeometry x="76" width="76" height="42" as="geometry">
            <mxRectangle width="76" height="42" as="alternateBounds" />
          </mxGeometry>
        </mxCell>
        <mxCell id="124qABG8EBhvvCTnsMnD-60" value="Sally" style="shape=partialRectangle;html=1;whiteSpace=wrap;connectable=0;strokeColor=inherit;overflow=hidden;fillColor=none;top=0;left=0;bottom=0;right=0;pointerEvents=1;fontSize=16;" vertex="1" parent="124qABG8EBhvvCTnsMnD-57">
          <mxGeometry x="152" width="76" height="42" as="geometry">
            <mxRectangle width="76" height="42" as="alternateBounds" />
          </mxGeometry>
        </mxCell>
        <mxCell id="124qABG8EBhvvCTnsMnD-61" value="391-1689" style="shape=partialRectangle;html=1;whiteSpace=wrap;connectable=0;strokeColor=inherit;overflow=hidden;fillColor=none;top=0;left=0;bottom=0;right=0;pointerEvents=1;fontSize=16;" vertex="1" parent="124qABG8EBhvvCTnsMnD-57">
          <mxGeometry x="228" width="76" height="42" as="geometry">
            <mxRectangle width="76" height="42" as="alternateBounds" />
          </mxGeometry>
        </mxCell>
        <mxCell id="124qABG8EBhvvCTnsMnD-62" value="AL" style="shape=partialRectangle;html=1;whiteSpace=wrap;connectable=0;strokeColor=inherit;overflow=hidden;fillColor=none;top=0;left=0;bottom=0;right=0;pointerEvents=1;fontSize=16;" vertex="1" parent="124qABG8EBhvvCTnsMnD-57">
          <mxGeometry x="304" width="76" height="42" as="geometry">
            <mxRectangle width="76" height="42" as="alternateBounds" />
          </mxGeometry>
        </mxCell>
        <mxCell id="124qABG8EBhvvCTnsMnD-63" value="TRE141" style="shape=partialRectangle;html=1;whiteSpace=wrap;connectable=0;strokeColor=inherit;overflow=hidden;fillColor=none;top=0;left=0;bottom=0;right=0;pointerEvents=1;fontSize=16;" vertex="1" parent="124qABG8EBhvvCTnsMnD-57">
          <mxGeometry x="380" width="76" height="42" as="geometry">
            <mxRectangle width="76" height="42" as="alternateBounds" />
          </mxGeometry>
        </mxCell>
        <mxCell id="124qABG8EBhvvCTnsMnD-64" value="17892" style="shape=partialRectangle;html=1;whiteSpace=wrap;connectable=0;strokeColor=inherit;overflow=hidden;fillColor=none;top=0;left=0;bottom=0;right=0;pointerEvents=1;fontSize=16;" vertex="1" parent="124qABG8EBhvvCTnsMnD-57">
          <mxGeometry x="456" width="76" height="42" as="geometry">
            <mxRectangle width="76" height="42" as="alternateBounds" />
          </mxGeometry>
        </mxCell>
        <mxCell id="124qABG8EBhvvCTnsMnD-65" value="12/13/21" style="shape=partialRectangle;html=1;whiteSpace=wrap;connectable=0;strokeColor=inherit;overflow=hidden;fillColor=none;top=0;left=0;bottom=0;right=0;pointerEvents=1;fontSize=16;" vertex="1" parent="124qABG8EBhvvCTnsMnD-57">
          <mxGeometry x="532" width="76" height="42" as="geometry">
            <mxRectangle width="76" height="42" as="alternateBounds" />
          </mxGeometry>
        </mxCell>
        <mxCell id="124qABG8EBhvvCTnsMnD-66" value="2" style="shape=partialRectangle;html=1;whiteSpace=wrap;connectable=0;strokeColor=inherit;overflow=hidden;fillColor=none;top=0;left=0;bottom=0;right=0;pointerEvents=1;fontSize=16;" vertex="1" parent="124qABG8EBhvvCTnsMnD-57">
          <mxGeometry x="608" width="76" height="42" as="geometry">
            <mxRectangle width="76" height="42" as="alternateBounds" />
          </mxGeometry>
        </mxCell>
        <mxCell id="124qABG8EBhvvCTnsMnD-67" value="$25" style="shape=partialRectangle;html=1;whiteSpace=wrap;connectable=0;strokeColor=inherit;overflow=hidden;fillColor=none;top=0;left=0;bottom=0;right=0;pointerEvents=1;fontSize=16;" vertex="1" parent="124qABG8EBhvvCTnsMnD-57">
          <mxGeometry x="684" width="76" height="42" as="geometry">
            <mxRectangle width="76" height="42" as="alternateBounds" />
          </mxGeometry>
        </mxCell>
        <mxCell id="124qABG8EBhvvCTnsMnD-88" style="edgeStyle=orthogonalEdgeStyle;rounded=0;orthogonalLoop=1;jettySize=auto;html=1;exitX=0.5;exitY=0;exitDx=0;exitDy=0;entryX=0.5;entryY=0;entryDx=0;entryDy=0;" edge="1" parent="1" source="124qABG8EBhvvCTnsMnD-68" target="124qABG8EBhvvCTnsMnD-73">
          <mxGeometry relative="1" as="geometry" />
        </mxCell>
        <mxCell id="124qABG8EBhvvCTnsMnD-89" style="edgeStyle=orthogonalEdgeStyle;rounded=0;orthogonalLoop=1;jettySize=auto;html=1;exitX=0.5;exitY=0;exitDx=0;exitDy=0;entryX=0.5;entryY=0;entryDx=0;entryDy=0;" edge="1" parent="1" source="124qABG8EBhvvCTnsMnD-68" target="124qABG8EBhvvCTnsMnD-72">
          <mxGeometry relative="1" as="geometry" />
        </mxCell>
        <mxCell id="124qABG8EBhvvCTnsMnD-90" style="edgeStyle=orthogonalEdgeStyle;rounded=0;orthogonalLoop=1;jettySize=auto;html=1;exitX=0.5;exitY=0;exitDx=0;exitDy=0;entryX=0.5;entryY=0;entryDx=0;entryDy=0;" edge="1" parent="1" source="124qABG8EBhvvCTnsMnD-68" target="124qABG8EBhvvCTnsMnD-71">
          <mxGeometry relative="1" as="geometry" />
        </mxCell>
        <mxCell id="124qABG8EBhvvCTnsMnD-91" style="edgeStyle=orthogonalEdgeStyle;rounded=0;orthogonalLoop=1;jettySize=auto;html=1;exitX=0.5;exitY=0;exitDx=0;exitDy=0;entryX=0.5;entryY=0;entryDx=0;entryDy=0;" edge="1" parent="1" source="124qABG8EBhvvCTnsMnD-68" target="124qABG8EBhvvCTnsMnD-70">
          <mxGeometry relative="1" as="geometry" />
        </mxCell>
        <mxCell id="124qABG8EBhvvCTnsMnD-92" style="edgeStyle=orthogonalEdgeStyle;rounded=0;orthogonalLoop=1;jettySize=auto;html=1;exitX=0.5;exitY=0;exitDx=0;exitDy=0;entryX=0.5;entryY=0;entryDx=0;entryDy=0;" edge="1" parent="1" source="124qABG8EBhvvCTnsMnD-68" target="124qABG8EBhvvCTnsMnD-69">
          <mxGeometry relative="1" as="geometry" />
        </mxCell>
        <mxCell id="124qABG8EBhvvCTnsMnD-68" value="&lt;b&gt;&lt;font style=&quot;font-size: 14px;&quot;&gt;Student_ID&lt;/font&gt;&lt;/b&gt;" style="rounded=0;whiteSpace=wrap;html=1;" vertex="1" parent="1">
          <mxGeometry y="360" width="100" height="40" as="geometry" />
        </mxCell>
        <mxCell id="124qABG8EBhvvCTnsMnD-69" value="&lt;b&gt;&lt;font style=&quot;font-size: 14px;&quot;&gt;LastName&lt;/font&gt;&lt;/b&gt;" style="rounded=0;whiteSpace=wrap;html=1;" vertex="1" parent="1">
          <mxGeometry x="100" y="360" width="90" height="40" as="geometry" />
        </mxCell>
        <mxCell id="124qABG8EBhvvCTnsMnD-70" value="&lt;b&gt;&lt;font style=&quot;font-size: 14px;&quot;&gt;FirstName&lt;/font&gt;&lt;/b&gt;" style="rounded=0;whiteSpace=wrap;html=1;" vertex="1" parent="1">
          <mxGeometry x="190" y="360" width="90" height="40" as="geometry" />
        </mxCell>
        <mxCell id="124qABG8EBhvvCTnsMnD-71" value="&lt;b&gt;&lt;font style=&quot;font-size: 14px;&quot;&gt;PhoneNo.&lt;/font&gt;&lt;/b&gt;" style="rounded=0;whiteSpace=wrap;html=1;" vertex="1" parent="1">
          <mxGeometry x="280" y="360" width="90" height="40" as="geometry" />
        </mxCell>
        <mxCell id="124qABG8EBhvvCTnsMnD-72" value="&lt;b&gt;&lt;font style=&quot;font-size: 14px;&quot;&gt;StLic&lt;/font&gt;&lt;/b&gt;" style="rounded=0;whiteSpace=wrap;html=1;" vertex="1" parent="1">
          <mxGeometry x="370" y="360" width="80" height="40" as="geometry" />
        </mxCell>
        <mxCell id="124qABG8EBhvvCTnsMnD-73" value="&lt;b&gt;&lt;font style=&quot;font-size: 14px;&quot;&gt;LicenseNo.&lt;/font&gt;&lt;/b&gt;" style="rounded=0;whiteSpace=wrap;html=1;" vertex="1" parent="1">
          <mxGeometry x="450" y="360" width="100" height="40" as="geometry" />
        </mxCell>
        <mxCell id="124qABG8EBhvvCTnsMnD-79" style="edgeStyle=orthogonalEdgeStyle;rounded=0;orthogonalLoop=1;jettySize=auto;html=1;exitX=0.5;exitY=1;exitDx=0;exitDy=0;entryX=0.5;entryY=1;entryDx=0;entryDy=0;" edge="1" parent="1" source="124qABG8EBhvvCTnsMnD-74" target="124qABG8EBhvvCTnsMnD-75">
          <mxGeometry relative="1" as="geometry" />
        </mxCell>
        <mxCell id="124qABG8EBhvvCTnsMnD-80" style="edgeStyle=orthogonalEdgeStyle;rounded=0;orthogonalLoop=1;jettySize=auto;html=1;exitX=0.5;exitY=1;exitDx=0;exitDy=0;entryX=0.5;entryY=1;entryDx=0;entryDy=0;" edge="1" parent="1" source="124qABG8EBhvvCTnsMnD-74" target="124qABG8EBhvvCTnsMnD-76">
          <mxGeometry relative="1" as="geometry" />
        </mxCell>
        <mxCell id="124qABG8EBhvvCTnsMnD-81" style="edgeStyle=orthogonalEdgeStyle;rounded=0;orthogonalLoop=1;jettySize=auto;html=1;exitX=0.5;exitY=1;exitDx=0;exitDy=0;entryX=0.5;entryY=1;entryDx=0;entryDy=0;" edge="1" parent="1" source="124qABG8EBhvvCTnsMnD-74" target="124qABG8EBhvvCTnsMnD-77">
          <mxGeometry relative="1" as="geometry" />
        </mxCell>
        <mxCell id="124qABG8EBhvvCTnsMnD-82" style="edgeStyle=orthogonalEdgeStyle;rounded=0;orthogonalLoop=1;jettySize=auto;html=1;exitX=0.5;exitY=1;exitDx=0;exitDy=0;entryX=0.5;entryY=1;entryDx=0;entryDy=0;" edge="1" parent="1" source="124qABG8EBhvvCTnsMnD-74" target="124qABG8EBhvvCTnsMnD-73">
          <mxGeometry relative="1" as="geometry" />
        </mxCell>
        <mxCell id="124qABG8EBhvvCTnsMnD-83" style="edgeStyle=orthogonalEdgeStyle;rounded=0;orthogonalLoop=1;jettySize=auto;html=1;exitX=0.5;exitY=1;exitDx=0;exitDy=0;entryX=0.5;entryY=1;entryDx=0;entryDy=0;" edge="1" parent="1" source="124qABG8EBhvvCTnsMnD-74" target="124qABG8EBhvvCTnsMnD-72">
          <mxGeometry relative="1" as="geometry" />
        </mxCell>
        <mxCell id="124qABG8EBhvvCTnsMnD-85" style="edgeStyle=orthogonalEdgeStyle;rounded=0;orthogonalLoop=1;jettySize=auto;html=1;exitX=0.5;exitY=1;exitDx=0;exitDy=0;entryX=0.5;entryY=1;entryDx=0;entryDy=0;" edge="1" parent="1" source="124qABG8EBhvvCTnsMnD-74" target="124qABG8EBhvvCTnsMnD-70">
          <mxGeometry relative="1" as="geometry" />
        </mxCell>
        <mxCell id="124qABG8EBhvvCTnsMnD-86" style="edgeStyle=orthogonalEdgeStyle;rounded=0;orthogonalLoop=1;jettySize=auto;html=1;exitX=0.5;exitY=1;exitDx=0;exitDy=0;entryX=0.5;entryY=1;entryDx=0;entryDy=0;" edge="1" parent="1" source="124qABG8EBhvvCTnsMnD-74" target="124qABG8EBhvvCTnsMnD-69">
          <mxGeometry relative="1" as="geometry" />
        </mxCell>
        <mxCell id="124qABG8EBhvvCTnsMnD-87" style="edgeStyle=orthogonalEdgeStyle;rounded=0;orthogonalLoop=1;jettySize=auto;html=1;exitX=0.5;exitY=1;exitDx=0;exitDy=0;entryX=0.5;entryY=1;entryDx=0;entryDy=0;" edge="1" parent="1" source="124qABG8EBhvvCTnsMnD-74" target="124qABG8EBhvvCTnsMnD-68">
          <mxGeometry relative="1" as="geometry" />
        </mxCell>
        <mxCell id="124qABG8EBhvvCTnsMnD-74" value="&lt;b&gt;&lt;font style=&quot;font-size: 14px;&quot;&gt;&lt;u&gt;Ticket#&lt;/u&gt;&lt;/font&gt;&lt;/b&gt;" style="rounded=0;whiteSpace=wrap;html=1;" vertex="1" parent="1">
          <mxGeometry x="550" y="360" width="100" height="40" as="geometry" />
        </mxCell>
        <mxCell id="124qABG8EBhvvCTnsMnD-75" value="&lt;b&gt;&lt;font style=&quot;font-size: 14px;&quot;&gt;Date&lt;/font&gt;&lt;/b&gt;" style="rounded=0;whiteSpace=wrap;html=1;" vertex="1" parent="1">
          <mxGeometry x="650" y="360" width="70" height="40" as="geometry" />
        </mxCell>
        <mxCell id="124qABG8EBhvvCTnsMnD-78" style="edgeStyle=orthogonalEdgeStyle;rounded=0;orthogonalLoop=1;jettySize=auto;html=1;exitX=0.5;exitY=0;exitDx=0;exitDy=0;entryX=0.5;entryY=0;entryDx=0;entryDy=0;" edge="1" parent="1" source="124qABG8EBhvvCTnsMnD-76" target="124qABG8EBhvvCTnsMnD-77">
          <mxGeometry relative="1" as="geometry" />
        </mxCell>
        <mxCell id="124qABG8EBhvvCTnsMnD-76" value="&lt;b&gt;&lt;font style=&quot;font-size: 14px;&quot;&gt;Code&lt;/font&gt;&lt;/b&gt;" style="rounded=0;whiteSpace=wrap;html=1;" vertex="1" parent="1">
          <mxGeometry x="720" y="360" width="70" height="40" as="geometry" />
        </mxCell>
        <mxCell id="124qABG8EBhvvCTnsMnD-77" value="&lt;b&gt;&lt;font style=&quot;font-size: 14px;&quot;&gt;Fine&lt;/font&gt;&lt;/b&gt;" style="rounded=0;whiteSpace=wrap;html=1;" vertex="1" parent="1">
          <mxGeometry x="790" y="360" width="60" height="40" as="geometry" />
        </mxCell>
        <mxCell id="124qABG8EBhvvCTnsMnD-84" style="edgeStyle=orthogonalEdgeStyle;rounded=0;orthogonalLoop=1;jettySize=auto;html=1;exitX=0.5;exitY=1;exitDx=0;exitDy=0;entryX=0.5;entryY=1;entryDx=0;entryDy=0;" edge="1" parent="1" source="124qABG8EBhvvCTnsMnD-74" target="124qABG8EBhvvCTnsMnD-71">
          <mxGeometry relative="1" as="geometry" />
        </mxCell>
        <mxCell id="124qABG8EBhvvCTnsMnD-95" value="&lt;b&gt;&lt;font style=&quot;font-size: 14px;&quot;&gt;LastName&lt;/font&gt;&lt;/b&gt;" style="rounded=0;whiteSpace=wrap;html=1;" vertex="1" parent="1">
          <mxGeometry x="100" y="519.92" width="90" height="40" as="geometry" />
        </mxCell>
        <mxCell id="124qABG8EBhvvCTnsMnD-96" value="&lt;b&gt;&lt;font style=&quot;font-size: 14px;&quot;&gt;FirstName&lt;/font&gt;&lt;/b&gt;" style="rounded=0;whiteSpace=wrap;html=1;" vertex="1" parent="1">
          <mxGeometry x="190" y="519.92" width="90" height="40" as="geometry" />
        </mxCell>
        <mxCell id="124qABG8EBhvvCTnsMnD-97" value="&lt;b&gt;&lt;font style=&quot;font-size: 14px;&quot;&gt;PhoneNo.&lt;/font&gt;&lt;/b&gt;" style="rounded=0;whiteSpace=wrap;html=1;" vertex="1" parent="1">
          <mxGeometry x="280" y="519.92" width="90" height="40" as="geometry" />
        </mxCell>
        <mxCell id="124qABG8EBhvvCTnsMnD-98" value="&lt;b&gt;&lt;font style=&quot;font-size: 14px;&quot;&gt;StLic&lt;/font&gt;&lt;/b&gt;" style="rounded=0;whiteSpace=wrap;html=1;" vertex="1" parent="1">
          <mxGeometry x="370" y="519.92" width="80" height="40" as="geometry" />
        </mxCell>
        <mxCell id="124qABG8EBhvvCTnsMnD-101" style="edgeStyle=orthogonalEdgeStyle;rounded=0;orthogonalLoop=1;jettySize=auto;html=1;exitX=0.5;exitY=0;exitDx=0;exitDy=0;entryX=0.5;entryY=0;entryDx=0;entryDy=0;" edge="1" parent="1" source="124qABG8EBhvvCTnsMnD-99" target="124qABG8EBhvvCTnsMnD-100">
          <mxGeometry relative="1" as="geometry" />
        </mxCell>
        <mxCell id="124qABG8EBhvvCTnsMnD-102" style="edgeStyle=orthogonalEdgeStyle;rounded=0;orthogonalLoop=1;jettySize=auto;html=1;exitX=0.5;exitY=0;exitDx=0;exitDy=0;entryX=0.5;entryY=0;entryDx=0;entryDy=0;" edge="1" parent="1" source="124qABG8EBhvvCTnsMnD-99" target="124qABG8EBhvvCTnsMnD-98">
          <mxGeometry relative="1" as="geometry" />
        </mxCell>
        <mxCell id="124qABG8EBhvvCTnsMnD-103" style="edgeStyle=orthogonalEdgeStyle;rounded=0;orthogonalLoop=1;jettySize=auto;html=1;exitX=0.5;exitY=0;exitDx=0;exitDy=0;entryX=0.5;entryY=0;entryDx=0;entryDy=0;" edge="1" parent="1" source="124qABG8EBhvvCTnsMnD-99" target="124qABG8EBhvvCTnsMnD-97">
          <mxGeometry relative="1" as="geometry" />
        </mxCell>
        <mxCell id="124qABG8EBhvvCTnsMnD-104" style="edgeStyle=orthogonalEdgeStyle;rounded=0;orthogonalLoop=1;jettySize=auto;html=1;exitX=0.5;exitY=0;exitDx=0;exitDy=0;entryX=0.5;entryY=0;entryDx=0;entryDy=0;" edge="1" parent="1" source="124qABG8EBhvvCTnsMnD-99" target="124qABG8EBhvvCTnsMnD-96">
          <mxGeometry relative="1" as="geometry" />
        </mxCell>
        <mxCell id="124qABG8EBhvvCTnsMnD-105" style="edgeStyle=orthogonalEdgeStyle;rounded=0;orthogonalLoop=1;jettySize=auto;html=1;exitX=0.5;exitY=0;exitDx=0;exitDy=0;entryX=0.5;entryY=0;entryDx=0;entryDy=0;" edge="1" parent="1" source="124qABG8EBhvvCTnsMnD-99" target="124qABG8EBhvvCTnsMnD-95">
          <mxGeometry relative="1" as="geometry" />
        </mxCell>
        <mxCell id="124qABG8EBhvvCTnsMnD-99" value="&lt;b&gt;&lt;font style=&quot;font-size: 14px;&quot;&gt;Student_ID&lt;/font&gt;&lt;/b&gt;" style="rounded=0;whiteSpace=wrap;html=1;" vertex="1" parent="1">
          <mxGeometry y="519.92" width="100" height="40" as="geometry" />
        </mxCell>
        <mxCell id="124qABG8EBhvvCTnsMnD-100" value="&lt;b&gt;&lt;font style=&quot;font-size: 14px;&quot;&gt;LicenseNo.&lt;/font&gt;&lt;/b&gt;" style="rounded=0;whiteSpace=wrap;html=1;" vertex="1" parent="1">
          <mxGeometry x="450" y="519.92" width="100" height="40" as="geometry" />
        </mxCell>
        <mxCell id="124qABG8EBhvvCTnsMnD-106" value="&lt;b&gt;Student Information&lt;/b&gt;" style="text;html=1;align=center;verticalAlign=middle;resizable=0;points=[];autosize=1;strokeColor=none;fillColor=none;" vertex="1" parent="1">
          <mxGeometry x="585" y="524.92" width="140" height="30" as="geometry" />
        </mxCell>
        <mxCell id="124qABG8EBhvvCTnsMnD-113" style="edgeStyle=orthogonalEdgeStyle;rounded=0;orthogonalLoop=1;jettySize=auto;html=1;exitX=0.5;exitY=0;exitDx=0;exitDy=0;entryX=0.5;entryY=1;entryDx=0;entryDy=0;" edge="1" parent="1" source="124qABG8EBhvvCTnsMnD-109" target="124qABG8EBhvvCTnsMnD-99">
          <mxGeometry relative="1" as="geometry" />
        </mxCell>
        <mxCell id="124qABG8EBhvvCTnsMnD-109" value="&lt;b&gt;&lt;font style=&quot;font-size: 14px;&quot;&gt;Student_ID&lt;/font&gt;&lt;/b&gt;" style="rounded=0;whiteSpace=wrap;html=1;" vertex="1" parent="1">
          <mxGeometry y="640" width="100" height="40" as="geometry" />
        </mxCell>
        <mxCell id="124qABG8EBhvvCTnsMnD-115" style="edgeStyle=orthogonalEdgeStyle;rounded=0;orthogonalLoop=1;jettySize=auto;html=1;exitX=0.5;exitY=1;exitDx=0;exitDy=0;entryX=0.5;entryY=1;entryDx=0;entryDy=0;" edge="1" parent="1" source="124qABG8EBhvvCTnsMnD-110" target="124qABG8EBhvvCTnsMnD-109">
          <mxGeometry relative="1" as="geometry" />
        </mxCell>
        <mxCell id="124qABG8EBhvvCTnsMnD-116" style="edgeStyle=orthogonalEdgeStyle;rounded=0;orthogonalLoop=1;jettySize=auto;html=1;exitX=0.5;exitY=1;exitDx=0;exitDy=0;entryX=0.5;entryY=1;entryDx=0;entryDy=0;" edge="1" parent="1" source="124qABG8EBhvvCTnsMnD-110" target="124qABG8EBhvvCTnsMnD-111">
          <mxGeometry relative="1" as="geometry" />
        </mxCell>
        <mxCell id="124qABG8EBhvvCTnsMnD-117" style="edgeStyle=orthogonalEdgeStyle;rounded=0;orthogonalLoop=1;jettySize=auto;html=1;exitX=0.5;exitY=1;exitDx=0;exitDy=0;entryX=0.5;entryY=1;entryDx=0;entryDy=0;" edge="1" parent="1" source="124qABG8EBhvvCTnsMnD-110" target="124qABG8EBhvvCTnsMnD-112">
          <mxGeometry relative="1" as="geometry" />
        </mxCell>
        <mxCell id="124qABG8EBhvvCTnsMnD-110" value="&lt;b&gt;&lt;font style=&quot;font-size: 14px;&quot;&gt;&lt;u&gt;Ticket#&lt;/u&gt;&lt;/font&gt;&lt;/b&gt;" style="rounded=0;whiteSpace=wrap;html=1;" vertex="1" parent="1">
          <mxGeometry x="100" y="640" width="100" height="40" as="geometry" />
        </mxCell>
        <mxCell id="124qABG8EBhvvCTnsMnD-111" value="&lt;b&gt;&lt;font style=&quot;font-size: 14px;&quot;&gt;Date&lt;/font&gt;&lt;/b&gt;" style="rounded=0;whiteSpace=wrap;html=1;" vertex="1" parent="1">
          <mxGeometry x="200" y="640" width="70" height="40" as="geometry" />
        </mxCell>
        <mxCell id="124qABG8EBhvvCTnsMnD-121" style="edgeStyle=orthogonalEdgeStyle;rounded=0;orthogonalLoop=1;jettySize=auto;html=1;exitX=0.75;exitY=1;exitDx=0;exitDy=0;entryX=0.5;entryY=0;entryDx=0;entryDy=0;" edge="1" parent="1" source="124qABG8EBhvvCTnsMnD-112" target="124qABG8EBhvvCTnsMnD-118">
          <mxGeometry relative="1" as="geometry" />
        </mxCell>
        <mxCell id="124qABG8EBhvvCTnsMnD-112" value="&lt;b&gt;&lt;font style=&quot;font-size: 14px;&quot;&gt;Code&lt;/font&gt;&lt;/b&gt;" style="rounded=0;whiteSpace=wrap;html=1;" vertex="1" parent="1">
          <mxGeometry x="270" y="640" width="70" height="40" as="geometry" />
        </mxCell>
        <mxCell id="124qABG8EBhvvCTnsMnD-114" value="&lt;b&gt;Ticket Information&lt;/b&gt;" style="text;html=1;align=center;verticalAlign=middle;resizable=0;points=[];autosize=1;strokeColor=none;fillColor=none;" vertex="1" parent="1">
          <mxGeometry x="380" y="645" width="130" height="30" as="geometry" />
        </mxCell>
        <mxCell id="124qABG8EBhvvCTnsMnD-122" style="edgeStyle=orthogonalEdgeStyle;rounded=0;orthogonalLoop=1;jettySize=auto;html=1;exitX=0.5;exitY=1;exitDx=0;exitDy=0;entryX=0.5;entryY=1;entryDx=0;entryDy=0;" edge="1" parent="1" source="124qABG8EBhvvCTnsMnD-118" target="124qABG8EBhvvCTnsMnD-119">
          <mxGeometry relative="1" as="geometry" />
        </mxCell>
        <mxCell id="124qABG8EBhvvCTnsMnD-123" style="edgeStyle=orthogonalEdgeStyle;rounded=0;orthogonalLoop=1;jettySize=auto;html=1;exitX=0.5;exitY=1;exitDx=0;exitDy=0;entryX=0.5;entryY=1;entryDx=0;entryDy=0;" edge="1" parent="1" source="124qABG8EBhvvCTnsMnD-118" target="124qABG8EBhvvCTnsMnD-120">
          <mxGeometry relative="1" as="geometry" />
        </mxCell>
        <mxCell id="124qABG8EBhvvCTnsMnD-118" value="&lt;b&gt;&lt;font style=&quot;font-size: 14px;&quot;&gt;Code&lt;/font&gt;&lt;/b&gt;" style="rounded=0;whiteSpace=wrap;html=1;" vertex="1" parent="1">
          <mxGeometry x="270" y="760" width="70" height="40" as="geometry" />
        </mxCell>
        <mxCell id="124qABG8EBhvvCTnsMnD-119" value="&lt;b&gt;&lt;font style=&quot;font-size: 14px;&quot;&gt;Violation&lt;/font&gt;&lt;/b&gt;" style="rounded=0;whiteSpace=wrap;html=1;" vertex="1" parent="1">
          <mxGeometry x="340" y="760" width="70" height="40" as="geometry" />
        </mxCell>
        <mxCell id="124qABG8EBhvvCTnsMnD-120" value="&lt;b&gt;&lt;font style=&quot;font-size: 14px;&quot;&gt;Fine&lt;/font&gt;&lt;/b&gt;" style="rounded=0;whiteSpace=wrap;html=1;" vertex="1" parent="1">
          <mxGeometry x="410" y="760" width="70" height="40" as="geometry" />
        </mxCell>
        <mxCell id="124qABG8EBhvvCTnsMnD-124" value="&lt;b&gt;Ticket Violation Information&lt;/b&gt;" style="text;html=1;align=center;verticalAlign=middle;resizable=0;points=[];autosize=1;strokeColor=none;fillColor=none;" vertex="1" parent="1">
          <mxGeometry x="520" y="765" width="180" height="30" as="geometry" />
        </mxCell>
      </root>
    </mxGraphModel>
  </diagram>
</mxfile>
